<?xml version="1.0" encoding="utf-8"?>
<!-- Generator: Adobe Illustrator 24.1.0, SVG Export Plug-In . SVG Version: 6.00 Build 0)  -->
<svg version="1.1" id="Layer_1" xmlns="http://www.w3.org/2000/svg" xmlns:xlink="http://www.w3.org/1999/xlink" x="0px" y="0px"
	 viewBox="0 0 166 166" style="enable-background:new 0 0 166 166;" xml:space="preserve">
<style type="text/css">
	.st0{fill:#232C64;}
	.st1{clip-path:url(#SVGID_2_);}
	.st2{clip-path:url(#SVGID_4_);fill:url(#SVGID_5_);}
</style>
<g>
	<path class="st0" d="M93.61,131.16l6.56-38.71h9.92l7.84,17.41l8.3-17.41h6.71c1.91,0,3.54,1.4,3.82,3.29l5.31,35.42h-10.04
		l-2.84-22.29l-8.84,16.08c-1.07,1.81-3.68,1.8-4.74-0.01l-8.71-16.07l-3.31,22.29H93.61 M69.68,122.62h2.03
		c2.44,0,5.86-0.23,8.48-2.79c1.28-1.22,2.96-3.66,2.96-7.95c0-3.6-1.1-6.68-3.02-8.47c-2.38-2.21-5.51-2.44-8.01-2.44h-2.44V122.62
		z M59.64,125.74v-33.3h13.17c3.89,0,10.39,0.52,15.38,5.34c4.53,4.35,5.4,9.92,5.4,14.1c0,5.11-1.28,9.64-5.05,13.41
		c-3.08,3.08-8.24,5.86-14.86,5.86h-8.63C62.06,131.16,59.64,128.73,59.64,125.74 M43.19,116.99l-4.35-12.54l-4.24,12.54H43.19z
		 M45.86,124.65H31.81l-2.61,6.5H18.58l13.91-36.23c0.57-1.5,2.01-2.48,3.61-2.48h8.31l14.57,38.71H48.24L45.86,124.65z"/>
	<g>
		<defs>
			<rect id="SVGID_1_" x="36.81" y="34.84" width="94.63" height="49.74"/>
		</defs>
		<clipPath id="SVGID_2_">
			<use xlink:href="#SVGID_1_"  style="overflow:visible;"/>
		</clipPath>
		<g class="st1">
			<defs>
				<path id="SVGID_3_" d="M53.84,62.96c5.18-13.57,17.72-19.78,32.51-19.78h33.27l-4.63,10.56c-5.16,13.52-18.03,22.26-32.77,22.26
					H52.93c6.13-7.02,15.58-12.06,26.75-12.06h5.93c4.75,0,11.38-2.77,13.11-8.6h-19.5c-9.5,0-18.36,2.94-25.57,8.11L53.84,62.96
					 M80.32,34.84c-15.76,1.54-28.82,9.71-34.54,24.68l-8.42,22.05c-0.54,1.42,0.58,3,2.13,3h43.31c18.09,0,33.89-10.73,40.23-27.32
					l7.94-19.23c0.48-1.25-0.18-2.62-1.31-3.18H80.32z"/>
			</defs>
			<clipPath id="SVGID_4_">
				<use xlink:href="#SVGID_3_"  style="overflow:visible;"/>
			</clipPath>
			
				<linearGradient id="SVGID_5_" gradientUnits="userSpaceOnUse" x1="16.773" y1="802.3953" x2="17.9196" y2="802.3953" gradientTransform="matrix(81.901 0 0 81.901 -1336.5105 -65657.2656)">
				<stop  offset="0" style="stop-color:#A6CE39"/>
				<stop  offset="1" style="stop-color:#0DB14B"/>
			</linearGradient>
			<rect x="36.81" y="34.85" class="st2" width="94.63" height="49.74"/>
		</g>
	</g>
	<path class="st0" d="M147.42,95.41c0,0.4-0.08,0.79-0.24,1.15c-0.16,0.37-0.37,0.68-0.63,0.95c-0.26,0.26-0.58,0.48-0.95,0.63
		c-0.37,0.16-0.75,0.23-1.15,0.23c-0.4,0-0.79-0.08-1.15-0.23c-0.37-0.16-0.68-0.37-0.95-0.63c-0.26-0.27-0.48-0.58-0.63-0.95
		c-0.16-0.37-0.24-0.75-0.24-1.15c0-0.4,0.08-0.79,0.24-1.15c0.16-0.37,0.37-0.68,0.63-0.95c0.27-0.27,0.58-0.48,0.95-0.63
		c0.37-0.16,0.75-0.24,1.15-0.24c0.4,0,0.79,0.08,1.15,0.24c0.37,0.16,0.68,0.37,0.95,0.63c0.27,0.26,0.48,0.58,0.63,0.95
		C147.35,94.62,147.42,95.01,147.42,95.41 M144.45,92.97c-0.33,0-0.65,0.06-0.95,0.19c-0.3,0.13-0.56,0.3-0.78,0.52
		c-0.22,0.22-0.39,0.48-0.52,0.78c-0.13,0.3-0.19,0.62-0.19,0.95c0,0.33,0.07,0.65,0.19,0.95c0.13,0.3,0.3,0.56,0.52,0.78
		c0.22,0.22,0.48,0.39,0.78,0.52c0.3,0.13,0.62,0.19,0.95,0.19c0.33,0,0.65-0.07,0.95-0.19c0.3-0.13,0.56-0.3,0.78-0.52
		c0.22-0.22,0.39-0.48,0.52-0.78c0.13-0.3,0.19-0.62,0.19-0.95c0-0.33-0.06-0.65-0.19-0.95c-0.13-0.3-0.3-0.56-0.52-0.78
		c-0.22-0.22-0.48-0.39-0.78-0.52C145.1,93.03,144.78,92.97,144.45,92.97 M145.11,95.72l0.68,1.24c0.02,0.04,0.02,0.07,0,0.1
		c-0.02,0.04-0.05,0.05-0.09,0.05h-0.5c-0.04,0-0.08-0.02-0.09-0.06l-0.64-1.21h-0.51V97c0,0.03-0.01,0.06-0.03,0.08
		c-0.02,0.02-0.04,0.03-0.08,0.03h-0.44c-0.03,0-0.06-0.01-0.08-0.03c-0.02-0.02-0.03-0.05-0.03-0.08v-3.18
		c0-0.03,0.01-0.06,0.03-0.08c0.02-0.02,0.05-0.03,0.08-0.03h0.97c0.28,0,0.49,0.03,0.63,0.08c0.19,0.07,0.34,0.19,0.44,0.36
		c0.11,0.17,0.16,0.37,0.16,0.6c0,0.2-0.05,0.39-0.14,0.55c-0.09,0.16-0.22,0.28-0.38,0.36C145.09,95.68,145.1,95.7,145.11,95.72
		 M144.94,94.77c0-0.19-0.07-0.33-0.2-0.4c-0.07-0.04-0.2-0.06-0.39-0.06h-0.41v0.93h0.54c0.15,0,0.26-0.04,0.34-0.12
		C144.9,95.04,144.94,94.92,144.94,94.77"/>
</g>
</svg>
