<svg xmlns="http://www.w3.org/2000/svg" viewBox="0 0 220 72.12"><defs><style>.a{fill-rule:evenodd;}</style></defs><polygon class="a" points="60 19.67 60 52.45 70.2 52.45 70.2 40.59 77.52 40.59 80.14 33.44 70.2 33.44 70.2 26.82 82.58 26.82 85.2 19.67 60 19.67"/><rect x="88.33" y="19.67" width="10.2" height="32.78"/><polygon class="a" points="105.6 19.67 105.6 52.45 115.8 52.45 115.8 40.59 123.12 40.59 125.74 33.44 115.8 33.44 115.8 26.82 128.18 26.82 130.79 19.67 105.6 19.67"/><path class="a" d="M160,52.45H149.71l-1.31-4.36H136.81l-1.31,4.36h-10l11.94-32.78h10.64ZM146.66,41.81l-4.1-13.68-3.92,13.68Z"/><path d="M156,26.21a3.6,3.6,0,0,1-1.31-.26,3.42,3.42,0,0,1-1.74-1.75,3.18,3.18,0,0,1,0-2.53,3.43,3.43,0,0,1,1.74-1.74,3.43,3.43,0,0,1,2.62,0A3.43,3.43,0,0,1,159,21.67a3.18,3.18,0,0,1,0,2.53A3.42,3.42,0,0,1,157.3,26,3.6,3.6,0,0,1,156,26.21Zm0-.61a2.4,2.4,0,0,0,1.74-.7,1.84,1.84,0,0,0,.53-.87,2.89,2.89,0,0,0,0-2.09,1.92,1.92,0,0,0-.53-.88,2.42,2.42,0,0,0-2.7-.52,2.54,2.54,0,0,0-.78.52,1.84,1.84,0,0,0-.53.88,2.9,2.9,0,0,0,0,2.09,1.76,1.76,0,0,0,.53.87,2,2,0,0,0,.78.52A3,3,0,0,0,156,25.6Zm-1.31-4.54h1.4a2.24,2.24,0,0,1,1,.27,1.18,1.18,0,0,1,.09,1.56,1,1,0,0,1-.7.27l1.05,1.65h-.79l-1-1.65h-.44v1.57h-.7Zm.7,1.57h.87a.33.33,0,0,0,.26-.08c.09,0,.09-.09.18-.18s.08-.09.08-.26a.34.34,0,0,0-.08-.26l-.18-.18c-.08,0-.17-.08-.26-.08h-.87Z"/></svg>