<svg id="Layer_1" data-name="Layer 1" xmlns="http://www.w3.org/2000/svg" viewBox="0 0 139.78 33.58"><defs><style>.cls-1{fill:#385cad;}</style></defs><path class="cls-1" d="M16.79,33.58A16.79,16.79,0,1,1,33.58,16.79,16.79,16.79,0,0,1,16.79,33.58Zm0-32.79a16,16,0,1,0,16,16A16,16,0,0,0,16.79.79ZM31,21.58s0,0-.08,0-.06,0-.05-.05A12.87,12.87,0,0,0,31.44,18c0-2.05-.83-3.31-1.9-3.31a1.09,1.09,0,0,0-1.12,1.16c0,1.26,1.54,1.35,1.54,4.1a11,11,0,0,1-.61,3.35c-1.72,5.81-7.21,8.51-12.56,8.51A13.43,13.43,0,0,1,12.05,31a.08.08,0,0,1,0-.1s.05-.05.07,0a11.78,11.78,0,0,0,3.58.55c2,0,3.25-.83,3.25-1.86a1.15,1.15,0,0,0-1.16-1.16c-1.26,0-1.35,1.58-4,1.58a11.17,11.17,0,0,1-3.39-.6c-5.77-1.77-8.52-7.21-8.52-12.61a15.87,15.87,0,0,1,.75-4.74.09.09,0,0,1,.09,0,.07.07,0,0,1,.05.06,12,12,0,0,0-.56,3.57c0,2,.84,3.26,1.91,3.26a1.09,1.09,0,0,0,1.11-1.11c0-1.26-1.53-1.4-1.53-4.1a11.12,11.12,0,0,1,.6-3.39C6,4.56,11.44,1.85,16.79,1.81a14.27,14.27,0,0,1,4.75.79.09.09,0,0,1,0,.09s-.05.05-.06,0a10.51,10.51,0,0,0-3.58-.59c-2,0-3.26.84-3.26,1.91a1.11,1.11,0,0,0,1.16,1.11c1.26,0,1.35-1.53,4-1.53a11.23,11.23,0,0,1,3.4.6c5.81,1.77,8.46,7.26,8.51,12.56A14.66,14.66,0,0,1,31,21.58Zm-8-4a2.67,2.67,0,0,0-2.79,2.56,1.88,1.88,0,0,0,1.63,2.09.59.59,0,0,0,.65-.6c0-.61-.8-.75-.74-1.66a1.13,1.13,0,0,1,1.16-1c1.12,0,1.64,1.08,1.64,2.2a2.85,2.85,0,0,1-2.8,2.91c-2,0-3.21-1.86-3.21-3.86a4.29,4.29,0,0,1,3-4.42s2.67.48,2.59-.7c0-.51-.81-.71-1.36-.73a3.59,3.59,0,0,0-1.24.2,1.53,1.53,0,0,1-.69-.86c1.91-1.44,3.25-2.84,3.25-4.42a1.52,1.52,0,0,0-1.62-1.58c-1.91,0-3.35,2.42-3.35,4.61a4,4,0,0,0,.09,1.06,41,41,0,0,1-3.74,2.41,9.37,9.37,0,0,1,.18-1.41A4.27,4.27,0,0,0,17,12.19a.55.55,0,0,0-.56-.61c-.93,0-1.63,1.4-1.81,2.37a3.05,3.05,0,0,1-2,1.17.85.85,0,0,1-.79-.7c1.77-.61,4-3,4-5.21a1.41,1.41,0,0,0-1.58-1.49c-2.09,0-3.86,3.12-3.86,5.54-.74,0-1-.79-1-1.4a9.65,9.65,0,0,1,.23-1.4.37.37,0,0,0-.37-.41c-.7,0-1.12.93-1.12,2a2.45,2.45,0,0,0,2.33,2.51,2.14,2.14,0,0,0,1.95,1.72,2.86,2.86,0,0,0,1.86-.65c0,.32-.09.6-.14.88a23.16,23.16,0,0,0-4.88,3,4.84,4.84,0,0,0-1.67,3.31,2.56,2.56,0,0,0,2.69,2.7c2.14,0,3.77-1.73,4.56-4.1a18.9,18.9,0,0,0,.62-4.23,43.62,43.62,0,0,0,4.27-2.7,1.84,1.84,0,0,0,.46.56,5.79,5.79,0,0,0-3.3,5.35,4.88,4.88,0,0,0,4.84,5.12,4.43,4.43,0,0,0,4.46-4.28C26.14,19.35,25.07,17.58,23,17.58ZM10.23,24.09a1,1,0,0,1-1.16-1.15c0-2,2.77-3.91,4.87-4.94C13.57,20.79,12.62,24,10.23,24.09Zm1.54-11c0-1.54,1.51-4.46,2.44-4.15C15.3,9.34,13.3,12.28,11.77,13.12Zm8.79-.7c0-1.91,1.29-3.76,2-3.41S22,11.21,20.56,12.42Z"/><path class="cls-1" d="M55.46,21.05a1.05,1.05,0,0,1-.48,1,5.52,5.52,0,0,1-2.9.76c-2.93,0-4.59-2.17-4.59-5.26,0-3.83,2.55-5.38,4.73-5.38A4.58,4.58,0,0,1,55,13a.48.48,0,0,1,.25.41.53.53,0,0,1-.47.5c-.16,0-.23-.07-.41-.2a3.88,3.88,0,0,0-2.19-.68c-1.92,0-3.74,1.44-3.74,4.48,0,2.6,1.35,4.37,3.68,4.37a4.8,4.8,0,0,0,2.12-.49c.19-.09.25-.21.25-.52V18.19H52.2a.42.42,0,0,1-.47-.47.43.43,0,0,1,.47-.47H55a.42.42,0,0,1,.46.47Z"/><path class="cls-1" d="M63.16,22.66H59a.92.92,0,0,1-1-1V13.48a1,1,0,0,1,1.11-1.16h4.09a.43.43,0,0,1,.49.48c0,.32-.15.47-.49.47h-4a.27.27,0,0,0-.26.29v3.25h3.75a.43.43,0,0,1,.48.48.42.42,0,0,1-.48.46H58.92v3.74c0,.14.06.23.2.23h4c.34,0,.49.14.49.45A.44.44,0,0,1,63.16,22.66Z"/><path class="cls-1" d="M74.35,13.27h-4c-.15,0-.24.15-.24.32v3.22h3.6a.41.41,0,0,1,.47.47.42.42,0,0,1-.47.47h-3.6v4.47a.43.43,0,0,1-.46.49c-.33,0-.5-.16-.5-.47V13.48a1,1,0,0,1,1.11-1.16h4.09a.42.42,0,0,1,.48.48A.42.42,0,0,1,74.35,13.27Z"/><path class="cls-1" d="M81.66,21.82a3.28,3.28,0,0,1-4.7,0,4.21,4.21,0,0,1-1-3A4.27,4.27,0,0,1,77,15.67a3.22,3.22,0,0,1,2.31-.91,3.14,3.14,0,0,1,2.31.91,4.2,4.2,0,0,1,1.1,3.11A4.21,4.21,0,0,1,81.66,21.82ZM81,16.35a2.37,2.37,0,0,0-3.36,0,3.36,3.36,0,0,0-.77,2.43,3.27,3.27,0,0,0,.76,2.38,2.26,2.26,0,0,0,1.68.76A2.36,2.36,0,0,0,81,21.16a3.4,3.4,0,0,0,.76-2.38A3.41,3.41,0,0,0,81,16.35Z"/><path class="cls-1" d="M90.06,22.71a.41.41,0,0,1-.47-.47v-.81a2.7,2.7,0,0,1-2.47,1.38c-1.87,0-2.63-1.32-2.63-2.87V15.33c0-.31.13-.47.45-.47a.43.43,0,0,1,.49.47v4.55a1.8,1.8,0,0,0,1.82,2c1.48,0,2.34-1.08,2.34-2.66V15.33a.47.47,0,1,1,.94,0v6.91A.41.41,0,0,1,90.06,22.71Z"/><path class="cls-1" d="M98.38,22.71a.43.43,0,0,1-.49-.47V17.77c0-.93-.29-2.12-1.84-2.12-1.29,0-2.32,1-2.32,2.71v3.88a.48.48,0,0,1-1,0V15.33a.48.48,0,0,1,1,0v.81a2.75,2.75,0,0,1,2.44-1.38,2.47,2.47,0,0,1,2.66,2.75v4.73C98.83,22.55,98.7,22.71,98.38,22.71Z"/><path class="cls-1" d="M106.63,22.71a.43.43,0,0,1-.49-.47v-.6a2.53,2.53,0,0,1-2.2,1.17c-2.13,0-3.33-1.5-3.33-4s1.29-4.07,3.33-4.07a2.49,2.49,0,0,1,2.2,1.18V11.72c0-.31.17-.46.49-.46a.4.4,0,0,1,.46.46V22.24A.41.41,0,0,1,106.63,22.71ZM106.14,18a2.21,2.21,0,0,0-2.2-2.39c-1.43,0-2.39,1.31-2.39,3.18s.9,3.09,2.39,3.09a2.22,2.22,0,0,0,2.2-2.41Z"/><path class="cls-1" d="M114.84,22.71a.41.41,0,0,1-.47-.47v-.73a2.58,2.58,0,0,1-2.34,1.3c-2.25,0-3.2-1.91-3.2-4s1-4,3.3-4a2.46,2.46,0,0,1,2.24,1.2v-.64a.41.41,0,0,1,.47-.46.42.42,0,0,1,.47.46v6.92A.42.42,0,0,1,114.84,22.71ZM114.37,18a2.22,2.22,0,0,0-2.21-2.39c-1.73,0-2.38,1.63-2.38,3.12s.48,3.15,2.38,3.15a2.2,2.2,0,0,0,2.21-2.38Z"/><path class="cls-1" d="M120.22,15.78h-1.29v4.83c0,.64.13,1.31.89,1.31a1.36,1.36,0,0,0,.57-.13,1,1,0,0,1,.33-.12.44.44,0,0,1,.38.44.46.46,0,0,1-.23.38,1.78,1.78,0,0,1-1.08.32c-1.11,0-1.8-.51-1.8-2.13v-4.9h-.86c-.32,0-.47-.13-.47-.43s.15-.44.47-.44H118V13.13a.47.47,0,0,1,.94,0v1.78h1.29c.32,0,.47.12.47.44S120.54,15.78,120.22,15.78Z"/><path class="cls-1" d="M122.85,13a.64.64,0,1,1,.64-.63A.62.62,0,0,1,122.85,13Zm0,9.72c-.3,0-.45-.16-.45-.47V15.32a.47.47,0,0,1,.94,0v6.92A.43.43,0,0,1,122.83,22.71Z"/><path class="cls-1" d="M130.87,21.82a3.27,3.27,0,0,1-4.69,0,4.21,4.21,0,0,1-1.05-3,4.23,4.23,0,0,1,1.08-3.11,3.19,3.19,0,0,1,2.31-.91,3.16,3.16,0,0,1,2.31.91,4.19,4.19,0,0,1,1.09,3.11A4.21,4.21,0,0,1,130.87,21.82Zm-.66-5.47a2.33,2.33,0,0,0-1.69-.7,2.28,2.28,0,0,0-1.67.7,3.32,3.32,0,0,0-.78,2.43,3.31,3.31,0,0,0,.76,2.38,2.29,2.29,0,0,0,1.69.76,2.34,2.34,0,0,0,1.7-.76,3.36,3.36,0,0,0,.76-2.38A3.46,3.46,0,0,0,130.21,16.35Z"/><path class="cls-1" d="M139.32,22.71a.43.43,0,0,1-.48-.47V17.77c0-.93-.29-2.12-1.84-2.12-1.29,0-2.33,1-2.33,2.71v3.88a.47.47,0,0,1-.94,0V15.33a.47.47,0,0,1,.94,0v.81a2.78,2.78,0,0,1,2.45-1.38,2.47,2.47,0,0,1,2.66,2.75v4.73C139.78,22.55,139.64,22.71,139.32,22.71Z"/></svg>