<?xml version="1.0" encoding="utf-8"?>
<!-- Generator: Adobe Illustrator 24.1.0, SVG Export Plug-In . SVG Version: 6.00 Build 0)  -->
<svg version="1.1" id="Layer_1" xmlns="http://www.w3.org/2000/svg" xmlns:xlink="http://www.w3.org/1999/xlink" x="0px" y="0px"
	 viewBox="0 0 139.8 22.3" style="enable-background:new 0 0 139.8 22.3;" xml:space="preserve">
<g>
	<g>
		<g>
			<path d="M5.7,17.7c-1.1-1.8-1.8-4.2-1.8-6.5c0-2.3,0.6-4.5,1.7-6.3l0.1-0.2c1.1-2.1,3.4-3.6,5.8-3.6v0c1.5,0,3.1,0.4,4.4,1.1l0,0
				l0,0C18.2,3.6,20,5.7,21,8.2V4.4c0-0.9-1.3-1.8-1.3-1.8c-2.2-1.6-5-2.6-8-2.6c-1.2,0-2.9,0.3-2.9,0.3l0,0C3.8,1.4,0,5.9,0,11.2
				c0,5.7,4.3,10.4,9.8,11c0,0,1.1,0.2,1.9,0.1c3.2,0,6.2-1.1,8.5-3l0.3-0.3c0.3-0.4,0.4-0.8,0.4-1.3v-3.2c0-0.9,0.5-1.8,1.2-2.3
				h-5.9c0.7,0.5,1.2,1.4,1.2,2.3l0,3c0,0.6-0.2,1.1-0.6,1.5c-0.5,0.5-2.4,1.5-2.4,1.5c-0.9,0.5-1.9,0.8-3,0.8
				C9,21.2,6.8,19.8,5.7,17.7L5.7,17.7L5.7,17.7z"/>
			<path d="M66.3,11.1c0,5.3,3.8,9.7,8.8,10.8l0,0c0,0,1.7,0.3,2.9,0.3c3,0,5.7-0.9,7.9-2.6c0,0,1.4-0.8,1.4-1.7l0.5-4.1
				c-1.5,3.8-4.1,5.3-5.6,6.1c-1.3,0.7-2.9,1.1-4.4,1.1v0c-2.3,0-4.7-1.3-5.8-3.5l-0.1-0.2c-1.1-1.9-1.7-4-1.7-6.3
				c0-2.3,0.6-4.5,1.7-6.3L72,4.6C73,2.5,75.4,1,77.8,1v0c1.5,0,3.1,0.4,4.4,1.1l0,0l0,0c2.3,1.4,4.1,3.5,5.1,6.1V4.3
				c0-0.9-1.3-1.8-1.3-1.8c-2.2-1.6-5-2.6-8-2.6c-1.2,0-2.9,0.3-2.9,0.3l0,0C70,1.3,66.3,5.8,66.3,11.1"/>
			<path d="M100.9,11.2c0,5.3,3.8,9.7,8.8,10.8l0,0c0,0,1.7,0.3,2.9,0.3c3,0,5.7-0.9,7.9-2.6c0,0,1.4-0.8,1.4-1.7l0.5-4.1
				c-1.5,3.8-4.1,5.3-5.6,6.1c-1.3,0.7-2.9,1.1-4.4,1.1v0c-2.3,0-4.7-1.3-5.8-3.5l-0.1-0.2c-1.1-1.9-1.7-4-1.7-6.3
				c0-2.3,0.6-4.5,1.7-6.3l0.1-0.2c1.1-2.1,3.4-3.6,5.8-3.6v0c1.5,0,3.1,0.4,4.4,1.1l0,0l0,0c2.3,1.4,4.1,3.5,5.1,6.1V4.4
				c0-0.9-1.3-1.8-1.3-1.8c-2.2-1.6-5-2.6-8-2.6c-1.2,0-2.9,0.3-2.9,0.3l0,0C104.6,1.3,100.9,5.8,100.9,11.2"/>
			<path d="M139.8,0.9H134c0.7,0.5,1.2,1.3,1.2,2.2V20c0,0.9-0.4,1.7-1.1,2.2h5.7c-0.7-0.5-1.1-1.3-1.1-2.2V3.2
				C138.6,2.2,139.1,1.4,139.8,0.9z"/>
			<path d="M39.8,0.9h-5.8c0.7,0.5,1.2,1.3,1.2,2.3l0,0v12.6v0c0.2,2.3,1.6,4.3,3.7,5.2l0,0c1.6,0.8,3.5,1.3,5.4,1.3
				c2,0,3.9-0.4,5.5-1.2l0,0c2-0.9,3.4-2.9,3.6-5.2l0,0V3.1c0-0.9,0.5-1.7,1.2-2.2h-3.4c0.7,0.5,1.2,1.3,1.2,2.2v12.7l0,0
				c-0.1,1.4-0.8,2.6-1.8,3.5l0,0c-1.1,0.9-3.1,1.6-5,1.6c-1.2,0-2.3-0.2-3.3-0.6l-0.1,0c-1.9-0.6-3.2-2.4-3.4-4.4l0,0V3.2l0,0
				C38.7,2.2,39.1,1.4,39.8,0.9z"/>
		</g>
	</g>
</g>
</svg>
