<svg id="ARTWORK" xmlns="http://www.w3.org/2000/svg" viewBox="0 0 142.56 30.1"><defs><style>.cls-1{fill:#af1e2d;}</style></defs><rect class="cls-1" x="52.09" y="10.92" width="2.71" height="15.56"/><polygon class="cls-1" points="46.89 17.17 42.76 17.17 42.76 10.92 40.05 10.92 40.05 26.48 42.76 26.48 42.76 19.4 46.89 19.4 46.89 26.48 49.6 26.48 49.6 10.92 46.89 10.92 46.89 17.17"/><path class="cls-1" d="M256,347.72l-.84.77a13.29,13.29,0,0,0-.57-7.64,14.48,14.48,0,0,0-5.1-5.81l.27,1.19a12.52,12.52,0,0,0-9.24-3.41c-7.54.47-13.08,6.5-12.27,12.93,0,.16.06.36.06.36a7.72,7.72,0,0,1,1.79-2.8,14.07,14.07,0,0,0-.6,3.54l2.4,2.67-4.71-2.64v7.74a5.73,5.73,0,0,0,1.31,3.92l.49.57.37-1.19.8.88.35-1.12.82.79.3-1a14.15,14.15,0,0,0,10,4,14.94,14.94,0,0,0,2.85-.29l-1.14-1a14.27,14.27,0,0,1-1.84.13c-5.29-.05-10.78-3.49-12-8.66a11.41,11.41,0,0,0,6.47,4.92l.33.09-.62,1c3.51,2.25,6.89.58,7,.24.52,0,6-.28,6.94-1.89.38-.71.2-1-.21-1.13l-3.63-1.24a4,4,0,0,0-2.55-3.21v-5c-2.36.6-3.31,3.84-3.38,4a23.11,23.11,0,0,0-3.12-6.52,6.93,6.93,0,0,1,2.16-1.7,4,4,0,0,1-.58-1.94,6.89,6.89,0,0,0,1.93,1.95c1.66,1.06,3.92,1.42,5.31.75a6.93,6.93,0,0,1,2.39,4.61s-.23.1-2.12.58-1.44,2.74-1.44,2.74l1-.42v1.2l1-.45v1.11c.89-.35,4.7-2.32,3.58-9.21A11,11,0,0,0,242,333.9a10.82,10.82,0,0,1,4.91,1.62,11,11,0,0,1,4.87,6.61,7.71,7.71,0,0,0-.95-4.63,13.3,13.3,0,0,1,2.85,3.95A11.06,11.06,0,0,1,251,353.36a7.69,7.69,0,0,0,3.55-3.05c-2.87,9.83-11.74,8.85-11.76,8.85l7.38,3.74v-1.16l1.09.55v-1.23l1.1.53a1.79,1.79,0,0,0-1-2l-1.56-.79A13.55,13.55,0,0,0,256,347.72Zm-13.57,6.75a5.11,5.11,0,0,1,.86-.61.81.81,0,0,1,1.19.42l.05.11h-.77a.53.53,0,0,1,.05.2.5.5,0,0,1-.12.37.55.55,0,0,1-.41.17h-1.71ZM240,352l.29.1-.3.06a3.54,3.54,0,0,1-.61.05,3.37,3.37,0,0,1-3-1.78,2.21,2.21,0,0,0,.25,1.85,3.79,3.79,0,0,0,.67.87l.06.06-.06,0L235.4,355l.63-1.69a4.34,4.34,0,0,1-.8-1.68,3.11,3.11,0,0,1,1.3-3.15l.09-.05,0,.1A5.19,5.19,0,0,0,240,352Z" transform="translate(-227.21 -332.8)"/><path class="cls-1" d="M366.72,343.72h-6.23v15.56h6.23c2.28,0,3-1.39,3-3.13v-9.31C369.76,345.11,369,343.72,366.72,343.72Zm.39,12.42a.84.84,0,0,1-.78.87h-3.19V346h3.19a.83.83,0,0,1,.78.86Z" transform="translate(-227.21 -332.8)"/><polygon class="cls-1" points="64.82 21.05 60.53 10.92 57.55 10.92 57.55 26.48 60.1 26.48 60.1 15.67 64.82 26.42 64.82 26.48 67.36 26.48 67.36 10.92 64.82 10.92 64.82 21.05"/><polygon class="cls-1" points="82.65 19.4 86.88 19.4 87.45 17.17 82.65 17.17 82.77 13.17 86.88 13.17 87.45 10.92 79.94 10.92 79.94 26.48 87.24 26.48 87.81 24.22 82.65 24.22 82.65 19.4"/><polygon class="cls-1" points="128.39 21.05 124.1 10.92 121.12 10.92 121.12 26.48 123.67 26.48 123.67 15.67 128.39 26.42 128.39 26.48 130.94 26.48 130.94 10.92 128.39 10.92 128.39 21.05"/><path class="cls-1" d="M326,349.92v-3.07c0-1.73-.76-3.12-3-3.12h-6.13v15.55h2.61V353h1.2l3.11,6.26h2.9L323.25,353C325.1,353,326,351.52,326,349.92Zm-3.43.86h-3.13V346h3.13a.83.83,0,0,1,.78.86v3.05A.84.84,0,0,1,322.52,350.78Z" transform="translate(-227.21 -332.8)"/><polygon class="cls-1" points="68.96 13.17 72.25 13.17 72.25 26.48 74.96 26.48 74.96 13.17 78.01 13.17 78.62 10.92 68.96 10.92 68.96 13.17"/><polygon class="cls-1" points="103.9 10.92 101.19 10.92 101.19 26.48 107.66 26.48 108.09 24.22 103.9 24.22 103.9 10.92"/><path class="cls-1" d="M339.72,343.72l-3.47,15.56h2.46l.7-3.62h3.79l.73,3.62h2.86l-3.36-15.56Zm.28,9.82.63-3.27c.24-1.51.48-2.65.64-4.33l0-.13h.1s0,.09,0,.13c.06.87.37,2.88.63,4.33l.62,3.27Z" transform="translate(-227.21 -332.8)"/><polygon class="cls-1" points="29.15 24.23 29.75 24.23 29.75 26.42 30.2 26.42 30.2 24.23 30.8 24.23 30.8 23.84 29.15 23.84 29.15 24.23"/><polygon class="cls-1" points="32.27 25.4 32.26 25.4 31.52 23.84 31.11 23.84 31.11 26.42 31.51 26.42 31.51 24.71 31.52 24.71 32.16 25.98 32.36 25.98 33 24.71 33.01 24.71 33.01 26.42 33.41 26.42 33.41 23.84 33 23.84 32.27 25.4"/></svg>