<?xml version="1.0" encoding="utf-8"?>
<!-- Generator: Adobe Illustrator 24.1.0, SVG Export Plug-In . SVG Version: 6.00 Build 0)  -->
<svg version="1.1" id="Layer_1" xmlns="http://www.w3.org/2000/svg" xmlns:xlink="http://www.w3.org/1999/xlink" x="0px" y="0px"
	 viewBox="0 0 82.9 98.3" style="enable-background:new 0 0 82.9 98.3;" xml:space="preserve">
<style type="text/css">
	.st0{fill:#0060A9;}
	.st1{fill:#FFDD00;}
	.st2{fill:#FFFFFF;}
</style>
<g id="Layer_2_1_">
	<g id="RBCLEOpmsmyP">
		<path class="st0" d="M74.8,86.2c0,3.3-1.3,5.1-3.9,6.1c-10.7,4-22,6-33.5,5.9c-11.4,0-22.7-2-33.5-5.9c-2.6-1-3.9-2.9-3.9-6.1V0
			h74.8V86.2z"/>
		<path class="st1" d="M20.1,52.6C9.7,46.1,6.3,43.2,6,39c0-1.1,0.2-2.3,0.5-3.4l-1-0.6c-0.8,1.3-1.3,2.8-1.3,4.4c0,2,0.6,4,1.7,5.7
			c1.5,2.2,3,3.7,6.8,6.5c3.7,2.7,6.6,6.2,8.4,10.4h0.6v-4.2c5.5,3.1,10.3,6,12.7,11.3H35C34.1,63.6,31,59.4,20.1,52.6z"/>
		<path class="st1" d="M67.7,69H67c0-3.9-3.5-4.9-7.2-4.9H48.2c0.4,2.1,0.5,4.2,0.3,6.2h-0.6c-1.1-8.7-6-13-12.8-17.6v3.9h-0.6
			c-1.8-4.1-5.8-7.9-9.6-10.6l0,0l-3.1-2.2v4.3h-0.6c-1.6-4.2-4.5-7.4-8.7-11.1c-4.5-4-6.3-6.5-7.4-9.3c-0.6-1.6-0.9-3.2-0.8-4.9
			c0-3.3,1.6-6.3,3.7-7.4V17c-1,1.4-1.6,3.1-1.6,4.9c0,1.7,0.4,3.4,1.2,5c2.5,4.8,11.1,10.8,16.5,14.4c16.9,11.3,20.2,13.3,23,19.3
			c0.4,0.8,0.7,1.7,0.9,2.6c2.5-0.4,11.3-1.7,12.9-2c0.3,0,1-0.1,1.3-0.1c1.5-1,2.8-2.2,3.8-3.7l-6.5-0.5c-0.3,0.6-0.6,1.3-1,1.9H58
			c0.2-0.7,0.3-1.3,0.5-1.9l-1.6-0.1v-0.4l1.8-0.2c0.3-1.7,0.5-3.4,0.5-5.2L51,50.4c0,0.8,0,1.6,0,2.4h-0.5
			c-0.2-0.8-0.3-1.6-0.4-2.4l-1.8-0.1v-0.5l1.7-0.1c-0.2-2-0.3-3.9-0.2-5.9L45,43.5c0.2,0.4,0.5,0.9,0.6,1.3c0.8,2.5,1,5.2,0.4,7.8
			h-0.6c-0.2-1.8-0.6-3.6-1.3-5.3c-1.3-3.1-4.3-5.8-9.2-9v4h-0.6C32.8,37,28.7,34.1,22.6,31c-5-2.6-6.6-5.7-6.3-10.5l1.7,1
			c0.2,4,3.5,7.1,7.5,7.1c2,0,4.1-0.3,6.1-0.7c2.8-0.6,5.4-1,7.5-0.3v-2.6h-1.7c-1,0.8-2.3,1.2-3.6,1.2c-2,0-5.7-1.1-5.7-5.3
			c0-3.6,3.1-4.2,5.6-4.2c1.3,0,3.6,0,4.3-0.1c0.5,0,0.9-0.1,1.3-0.4c0.2-0.3,0.4-0.6,0.4-0.9c0.1-0.6,0.1-1.1,0.1-1.7v-2.7H28.1
			v4.6l-4.4-1.6v-1.1h2.1v-1.8H18V7h-2.7c-1.7,0-3.1,1.3-3.2,2.9c-0.1,1.9,0.7,3.4,2.6,3.4h0.3v2.2h-0.4c-3.2,0.1-5.8-2.4-5.9-5.6
			c0-0.1,0-0.2,0-0.3c0.1-3.5,3-6.2,6.5-6.1c0,0,0,0,0.1,0h5.7v3.8h22V13c0,1,0,2-0.1,3c-0.1,1-0.6,1.9-1.4,2.5
			c-0.7,0.5-1.7,0.7-3.3,0.7c-0.5,0-2.1,0-4-0.1C31.8,19,31.1,20,31,20.8c0,0.2,0,0.4,0,0.5c1.3-1.1,3.1-1.4,4.7-0.9
			c3.3,1,4.3,1.1,6-0.2l0.2,0.4c-0.3,0.4-0.6,0.8-1,1.1h1.6v8.7l5-3h14l6.9,3.6c0.7,0.3,1.2,1,1.3,1.8c0.1,0.7,0,1.4-0.4,2.1
			c-0.2,0.3-1.8,3-2.7,4.4c5.6,6.1,5.3,15.7-0.9,21.3c-0.3,0.3-0.6,0.5-0.9,0.7c1.7,0.5,3.1,1.6,4.1,3.1L67.7,69z M36.4,22.2
			c-2-0.4-3.1-0.2-4.2,0.9c0.6,0.3,1.3,0.4,2,0.4C35.1,23.3,35.9,22.9,36.4,22.2z M35.3,34.7l5.6-3.3c-1.2-0.6-2.4-0.9-3.7-0.9
			c-1.9,0-5.1,0.8-6.7,1.1C31.1,32,33.6,33.6,35.3,34.7z M60.1,35.1l0.8-1.1l-1.2-1.6l0.2-0.4l3.4,1.8L62.5,36
			c0.6,0.3,1.2,0.6,1.7,1l2.1-3.5l-5.6-2.9H48.4l-10.1,6.1c1.8,1.2,3.4,2.6,4.9,4.2c2.8-4,7.3-6.3,12.1-6.4
			C56.9,34.4,58.5,34.6,60.1,35.1z M59.1,49.1c-0.1-1.7-0.3-3.4-0.6-5l-6.6-0.3c-0.4,1.9-0.7,3.8-0.9,5.7L59.1,49.1z M61.3,44.2
			c0.2,1.6,0.2,3.2,0.1,4.8l6.5-0.3c-0.2-1.4-0.6-2.8-1.2-4.2L61.3,44.2z M58,42.1c-0.5-1.6-1.1-3.2-1.9-4.8c-0.3,0-0.5,0-0.8,0
			c-0.5,0-0.9,0.1-1.4,0.1c-0.7,1.6-1.2,3.3-1.6,5L58,42.1z M59.8,38.2c0.5,1.2,0.8,2.5,1.1,3.8l4-0.2
			C63.5,40.2,61.8,38.9,59.8,38.2z M67.1,55c0.5-1.1,0.8-2.4,0.8-3.6L61.2,51c-0.3,1.7-0.7,3.3-1.4,4.9L67.1,55z M50.4,38.4
			c-2.1,0.9-3.9,2.4-5.2,4.4l4.6-0.2C50,41.2,50.1,39.8,50.4,38.4z"/>
		<path class="st2" d="M41.8,79c2-0.2,3.6-1.9,3.7-4c0-2-0.8-4.2-6.7-4.2h-9.9V71c0.4,0.1,0.8,0.4,1.1,0.6c0.7,0.8,1,1.9,0.9,3v14.9
			h8.2c4.5,0,7.8-1.7,7.8-5.7C46.9,80.6,44.4,79.2,41.8,79z M37.6,72.6c2.1,0,3.5,0.5,3.5,2.7c0,2.4-1.9,3.1-4.1,3.1h-1.9v-5.7
			L37.6,72.6z M37.8,87.7h-2.7v-7.6h2.5c3.5,0,4.8,1,4.8,3.6C42.5,86.6,40.8,87.7,37.8,87.7z"/>
		<path class="st2" d="M21.5,89.5h5.4l-6.8-8.8c2.7-0.7,4.8-2.2,4.8-5c0-3.2-1.9-4.9-6.9-4.9H7.6V71c0.4,0.1,0.8,0.4,1.1,0.7
			c0.7,0.7,0.9,1.8,0.9,3.3v14.5h4.3v-8.2h1.6L21.5,89.5z M13.9,72.6h2.9c2.5,0,3.7,0.7,3.7,3.3c0,2.3-1.6,3.6-4.3,3.6h-2.3V72.6z"
			/>
		<path class="st2" d="M64.3,73.4c0.6,0.3,1.2,0.9,1.5,1.5c0.1,0,0.1,0,0.2,0l0.9-3.2c0,0-1.6-1.2-5.7-1.2c-6.1,0-10.6,3-10.6,9.7
			c0,7.5,5.4,9.5,10.2,9.5c4.4,0,6.2-1.4,6.2-1.4v-2.2c0,0-1.6,1.5-4.9,1.5c-2.8,0-6.8-1.3-6.9-7.4c-0.1-5.7,2.4-7.6,5.7-7.6
			C62.1,72.5,63.3,72.8,64.3,73.4z"/>
		<path class="st0" d="M77.5,91c0-1.5,1.2-2.7,2.7-2.7c1.5,0,2.7,1.2,2.7,2.7c0,1.5-1.2,2.7-2.7,2.7C78.8,93.7,77.6,92.6,77.5,91
			C77.5,91.1,77.5,91,77.5,91z M80.3,93.2c1.2,0,2.3-0.9,2.3-2.2c0-1.2-0.9-2.3-2.2-2.3s-2.3,0.9-2.3,2.2c0,0,0,0,0,0.1
			C78.1,92.2,79,93.2,80.3,93.2C80.2,93.2,80.2,93.2,80.3,93.2z M79.7,92.5h-0.5v-3.1h1.2c0.7,0,1.1,0.3,1.1,0.9
			c0,0.5-0.4,0.8-0.8,0.8l0.9,1.4H81l-0.8-1.3h-0.5L79.7,92.5z M80.3,90.8c0.4,0,0.8,0,0.8-0.5s-0.4-0.5-0.7-0.5h-0.6v1H80.3z"/>
	</g>
</g>
</svg>
